<svg viewBox="0 0 100 100" xml:space="preserve" xmlns="http://www.w3.org/2000/svg" enable-background="new 0 0 100 100"><path d="M92.6 29.8c-1.1-4.4-4.8-7.7-9.3-8.2-22.1-2.8-44.5-2.8-66.6 0-4.5.6-8.2 3.9-9.3 8.2-2.2 8.9-2.2 31.6 0 40.5 1.1 4.4 4.8 7.7 9.3 8.2 11.1 1.4 22.2 2.1 33.3 2.1s22.3-.7 33.3-2.1c4.5-.6 8.2-3.9 9.3-8.2 2.3-8.9 2.3-31.7 0-40.5zM65.5 50.9l-25 15c-.1.1-.3.1-.5.1s-.3 0-.5-.1c-.3-.2-.5-.5-.5-.9V35c0-.4.2-.7.5-.9.3-.2.7-.2 1 0l25 15c.3.2.5.5.5.9s-.2.7-.5.9z" fill="#ffffff" class="fill-000000"></path></svg>